<?xml version="1.0" encoding="UTF-8" standalone="no"?>
<svg width="240px" height="240px" viewBox="0 0 240 240" version="1.1" xmlns="http://www.w3.org/2000/svg" xmlns:xlink="http://www.w3.org/1999/xlink" xmlns:sketch="http://www.bohemiancoding.com/sketch/ns">
    <!-- Generator: Sketch 3.2.2 (9983) - http://www.bohemiancoding.com/sketch -->
    <title>Apple</title>
    <desc>Created with Sketch.</desc>
    <defs></defs>
    <g id="Page-1" stroke="none" stroke-width="1" fill="none" fill-rule="evenodd" sketch:type="MSPage">
        <g id="Apple" sketch:type="MSArtboardGroup">
            <g id="Oval-78-+-Oval-79" sketch:type="MSLayerGroup" transform="translate(35.000000, 60.000000)" stroke="#5FA70B" stroke-width="10" fill="#7ED321">
                <path d="M85,6.09865268 C72.7937588,6.09865268 61.1884477,-2.66202411 50.6968068,0.816633799 C20.8384564,10.7166093 0,33.9258993 0,66.0165679 C0,100.347288 23.8492011,138.446735 57.0773184,152.833244 C65.8230914,156.61983 75.2186014,149.977881 85,149.977881" id="Oval-78" sketch:type="MSShapeGroup"></path>
                <path d="M170,6.09865268 C157.793759,6.09865268 146.188448,-2.66202411 135.696807,0.816633799 C105.838456,10.7166093 85,33.9258993 85,66.0165679 C85,100.347288 108.849201,138.446735 142.077318,152.833244 C150.823091,156.61983 160.218601,149.977881 170,149.977881" id="Oval-79" sketch:type="MSShapeGroup" transform="translate(127.500000, 77.000000) scale(-1, 1) translate(-127.500000, -77.000000) "></path>
            </g>
            <path d="M86,53 C92.627417,53 98,51.4178574 98,33.4797737 C98,15.54169 92.627417,1 86,1 C79.372583,1 74,15.54169 74,33.4797737 C74,51.4178574 79.372583,53 86,53 Z" id="Oval-47" fill="#7ED321" sketch:type="MSShapeGroup" transform="translate(86.000000, 27.000000) scale(1, -1) rotate(-90.000000) translate(-86.000000, -27.000000) "></path>
            <path d="M114,16 L134,16 L124.739514,55 L114,55 L114,16 Z" id="Rectangle-7" fill="#DEB28B" sketch:type="MSShapeGroup"></path>
        </g>
    </g>
</svg>