<?xml version="1.0" encoding="UTF-8" standalone="no"?>
<svg width="240px" height="240px" viewBox="0 0 240 240" version="1.1" xmlns="http://www.w3.org/2000/svg" xmlns:xlink="http://www.w3.org/1999/xlink" xmlns:sketch="http://www.bohemiancoding.com/sketch/ns">
    <!-- Generator: Sketch 3.2.2 (9983) - http://www.bohemiancoding.com/sketch -->
    <title>Beet</title>
    <desc>Created with Sketch.</desc>
    <defs></defs>
    <g id="Page-1" stroke="none" stroke-width="1" fill="none" fill-rule="evenodd" sketch:type="MSPage">
        <g id="Beet" sketch:type="MSArtboardGroup">
            <g id="Icon-5" sketch:type="MSLayerGroup" transform="translate(72.000000, 9.000000)">
                <g id="Body-2" transform="translate(0.268293, 0.891304)" sketch:type="MSShapeGroup">
                    <g id="Head-2" transform="translate(0.731707, 0.108696)">
                        <path d="M51.0454678,26.3677939 C59.25858,26.3677939 82.749258,19.1300431 82.749258,10.201825 C82.749258,1.27360694 69.3094639,0 61.0963516,0 C52.8832394,0 36.1743125,1.27360694 36.1743125,10.201825 C36.1743125,19.1300431 42.8323555,26.3677939 51.0454678,26.3677939 Z" id="Oval-6" fill="#7ED321"></path>
                        <ellipse id="Oval-7" fill="#7ED321" cx="53.3146737" cy="26.3677939" rx="6.1699474" ry="15.6951154"></ellipse>
                        <path d="M32.3304255,43.6630753 C37.4691782,50.0559156 35.6579962,47.6844411 39.7215083,54.0365657 C43.7850205,60.3886902 42.7409758,69.1541499 47.5909104,67.5184246 C52.440845,65.8826993 49.0431717,42.8164944 49.0431717,32.1749866 C49.0431717,18.2192282 43.0226009,6.90585078 35.5958504,6.90585078 C28.1690999,6.90585078 22.1485291,18.2192282 22.1485291,32.1749866 C22.1485291,37.7586713 27.1916728,37.2702351 32.3304255,43.6630753 Z" id="BottomLeaf" stroke="#FFFFFF" stroke-width="1.89210937" fill="#417505"></path>
                        <path d="M24.6563062,35.4285548 C37.1507217,35.4285548 45.4044847,29.2883858 45.4044847,20.1707772 C45.4044847,11.0531686 35.2757597,3.6618865 22.7813443,3.6618865 C10.2869288,3.6618865 0.15820378,11.0531686 0.15820378,20.1707772 C0.15820378,29.2883858 12.1618908,35.4285548 24.6563062,35.4285548 Z" id="TopLeaf" fill="#417505"></path>
                    </g>
                    <path d="M61.2442522,182.205467 C85.6528333,174.427576 102.231705,133.223982 102.231705,110.108696 C102.231705,84.5096861 81.8986449,72.4232978 53.1158537,72.4232978 C24.3330625,72.4232978 1.91920733,84.5096861 1.91920733,110.108696 C1.91920733,133.939445 21.3435189,176.995569 47.2477652,182.830095 C47.542931,183.241122 47.8257125,183.695895 48.0930168,184.200369 C52.2748211,192.092538 53.1684442,206.574799 53.1684442,206.574799 C53.1684442,206.574799 62.5457569,192.397064 61.6082586,183.870495 C61.5401719,183.251244 61.4159684,182.699413 61.2442522,182.205467 Z" id="Body" stroke="#930012" stroke-width="10" fill="#D0011B"></path>
                </g>
            </g>
            <ellipse id="Oval-76" fill="#930012" sketch:type="MSShapeGroup" cx="99" cy="119" rx="30" ry="6"></ellipse>
            <ellipse id="Oval-77" fill="#930012" sketch:type="MSShapeGroup" cx="145" cy="157" rx="20" ry="6"></ellipse>
        </g>
    </g>
</svg>