<?xml version="1.0" encoding="UTF-8" standalone="no"?>
<svg width="240px" height="240px" viewBox="0 0 240 240" version="1.1" xmlns="http://www.w3.org/2000/svg" xmlns:xlink="http://www.w3.org/1999/xlink" xmlns:sketch="http://www.bohemiancoding.com/sketch/ns">
    <!-- Generator: Sketch 3.2.2 (9983) - http://www.bohemiancoding.com/sketch -->
    <title>Ginger</title>
    <desc>Created with Sketch.</desc>
    <defs></defs>
    <g id="Page-1" stroke="none" stroke-width="1" fill="none" fill-rule="evenodd" sketch:type="MSPage">
        <g id="Ginger" sketch:type="MSArtboardGroup">
            <path d="M33.0237541,97.8362088 C45.6013217,87.3630552 61.8754468,78.3970071 75.772606,73.2814377 L75.772606,73.2814377 C75.8521103,71.1355473 75.905119,69.1898847 75.905119,67.5275018 C75.905119,25.6414453 105.544461,34.6602765 124.895853,34.6602765 C144.247245,34.6602765 143.015715,43.6741523 143.015715,85.5602087 C143.015715,91.4432795 143.04001,97.6619284 143.028157,104.005831 L143.028157,104.005831 C147.877103,98.2181659 152.392812,91.3638779 155.358468,83.2158043 C156.723292,79.4659812 164.524332,57.0128838 166.145869,53.5776651 C178.550686,27.2981054 177.110233,30.3320666 191.109145,35.427254 C202.925668,39.7281168 215.742572,39.1006225 216.569466,52.0005143 L216.569466,52.0005143 C226.304462,53.876109 233.620725,56.6248672 231.843493,66.7040512 C229.94226,77.4864778 220.886855,78.211916 210.136271,76.359188 C206.865394,82.4920842 202.028486,88.6594996 196.261897,94.5611043 L196.261897,94.5611043 C202.743475,103.897575 207.064195,111.9526 197.663964,118.534712 C188.953459,124.633874 182.062463,119.944937 175.835436,111.869605 C164.564327,119.929214 152.612219,126.491551 142.618068,130.311141 C142.292916,139.394683 141.719325,148.137079 140.715359,155.905247 C141.484986,155.864042 142.26164,155.843105 143.044477,155.843105 C161.814945,155.843105 177.031416,167.880212 177.031416,182.728737 C177.031416,189.235694 174.109261,195.20275 169.246415,199.853508 C173.145607,206.707928 174.182344,212.75367 166.833682,217.899258 C157.553379,224.397397 150.338417,218.649865 143.79133,209.608005 L143.79133,209.608005 C143.543026,209.61224 143.294065,209.614368 143.044477,209.614368 C124.274009,209.614368 109.057538,197.577261 109.057538,182.728737 C109.057538,181.109699 109.238447,179.524086 109.585148,177.983857 L109.585148,177.983857 C95.7067571,164.959703 80.2424621,138.36848 75.905119,110.093104 C75.6203227,108.236501 75.4205882,106.207501 75.2868612,104.065793 C73.5794529,106.811381 72.0850701,109.780672 70.9144674,112.996877 C69.7123896,116.299559 62.886915,136.091777 61.413393,139.100865 C50.1408907,162.120509 51.450643,159.463273 37.1845658,154.270846 C21.0536516,148.399673 3.51560749,150.380693 13.9136283,121.812365 C14.4010356,120.473225 14.9989337,119.131719 15.6975546,117.791618 C10.3922921,109.654856 7.78355318,102.565131 16.2160205,96.6606536 C22.657974,92.1499492 28.104745,93.539807 33.0237541,97.8362088 Z" id="Oval-96" stroke="#BFAA98" stroke-width="10" fill="#DEB28B" sketch:type="MSShapeGroup"></path>
            <path d="M78.3021228,126.340016 C102.12827,126.340016 121.443178,124.870624 121.443178,123.058037 C121.443178,121.24545 102.12827,119.776058 78.3021228,119.776058" id="Oval-104" fill="#BFAA98" sketch:type="MSShapeGroup" transform="translate(99.872650, 123.058037) scale(1, -1) translate(-99.872650, -123.058037) "></path>
            <path d="M96.8726502,85.3400158 C120.698797,85.3400158 140.013705,83.8706239 140.013705,82.0580371 C140.013705,80.2454502 120.698797,78.7760583 96.8726502,78.7760583" id="Oval-105" fill="#BFAA98" sketch:type="MSShapeGroup" transform="translate(118.443178, 82.058037) scale(-1, -1) translate(-118.443178, -82.058037) "></path>
            <path d="M136.013705,182.340016 C159.839852,182.340016 179.15476,180.870624 179.15476,179.058037 C179.15476,177.24545 159.839852,175.776058 136.013705,175.776058" id="Oval-106" fill="#BFAA98" sketch:type="MSShapeGroup" transform="translate(157.584233, 179.058037) scale(-1, -1) translate(-157.584233, -179.058037) "></path>
            <path d="M36,141.340016 C50.313465,141.340016 61.916821,139.870624 61.916821,138.058037 C61.916821,136.24545 50.313465,134.776058 36,134.776058" id="Oval-107" fill="#BFAA98" sketch:type="MSShapeGroup" transform="translate(48.958410, 138.058037) scale(-1, -1) translate(-48.958410, -138.058037) "></path>
            <path d="M179.15476,82.2760583 C195.723303,82.2760583 209.15476,80.7090549 209.15476,78.7760583 C209.15476,76.8430617 195.723303,75.2760583 179.15476,75.2760583" id="Oval-108" fill="#BFAA98" sketch:type="MSShapeGroup" transform="translate(194.154760, 78.776058) scale(-1, -1) translate(-194.154760, -78.776058) "></path>
        </g>
    </g>
</svg>