<?xml version="1.0" encoding="UTF-8" standalone="no"?>
<svg width="240px" height="240px" viewBox="0 0 240 240" version="1.1" xmlns="http://www.w3.org/2000/svg" xmlns:xlink="http://www.w3.org/1999/xlink" xmlns:sketch="http://www.bohemiancoding.com/sketch/ns">
    <!-- Generator: Sketch 3.2.2 (9983) - http://www.bohemiancoding.com/sketch -->
    <title>Grapefruit</title>
    <desc>Created with Sketch.</desc>
    <defs></defs>
    <g id="Page-1" stroke="none" stroke-width="1" fill="none" fill-rule="evenodd" sketch:type="MSPage">
        <g id="Grapefruit" sketch:type="MSArtboardGroup">
            <circle id="Oval-150" stroke="#FA8458" stroke-width="10" fill="#F8E81C" sketch:type="MSShapeGroup" cx="119" cy="122" r="108"></circle>
            <path d="M160.672303,121.771798 C160.672303,121.771798 188.283765,169.714292 184.401072,182.246192 C180.518379,194.778093 146.501675,195.981882 140.639163,182.246192 C134.776651,168.510503 160.672303,121.771798 160.672303,121.771798 Z" id="Triangle-9" fill="#FB9D7A" sketch:type="MSShapeGroup" transform="translate(162.275280, 156.936752) rotate(-45.000000) translate(-162.275280, -156.936752) "></path>
            <path d="M82.1217436,123.771798 C82.1217436,123.771798 109.733205,171.714292 105.850512,184.246192 C101.967819,196.778093 67.9511156,197.981882 62.0886035,184.246192 C56.2260913,170.510503 82.1217436,123.771798 82.1217436,123.771798 Z" id="Triangle-10" fill="#FB9D7A" sketch:type="MSShapeGroup" transform="translate(83.724720, 158.936752) rotate(45.000000) translate(-83.724720, -158.936752) "></path>
            <path d="M65.1217436,86.9965181 C65.1217436,86.9965181 92.7332049,134.939012 88.850512,147.470913 C84.9678192,160.002813 50.9511156,161.206602 45.0886035,147.470913 C39.2260913,133.735223 65.1217436,86.9965181 65.1217436,86.9965181 Z" id="Triangle-12" fill="#FB9D7A" sketch:type="MSShapeGroup" transform="translate(66.724720, 122.161472) rotate(90.000000) translate(-66.724720, -122.161472) "></path>
            <path d="M81.1217436,50.2212383 C81.1217436,50.2212383 108.733205,98.1637322 104.850512,110.695633 C100.967819,123.227533 66.9511156,124.431323 61.0886035,110.695633 C55.2260913,96.959943 81.1217436,50.2212383 81.1217436,50.2212383 Z" id="Triangle-14" fill="#FB9D7A" sketch:type="MSShapeGroup" transform="translate(82.724720, 85.386192) rotate(135.000000) translate(-82.724720, -85.386192) "></path>
            <path d="M159.672303,49.2212383 C159.672303,49.2212383 187.283765,97.1637322 183.401072,109.695633 C179.518379,122.227533 145.501675,123.431323 139.639163,109.695633 C133.776651,95.959943 159.672303,49.2212383 159.672303,49.2212383 Z" id="Triangle-15" fill="#FB9D7A" sketch:type="MSShapeGroup" transform="translate(161.275280, 84.386192) scale(-1, 1) rotate(135.000000) translate(-161.275280, -84.386192) "></path>
            <path d="M173.061977,86.4965181 C173.061977,86.4965181 200.673438,134.439012 196.790746,146.970913 C192.908053,159.502813 158.891349,160.706602 153.028837,146.970913 C147.166325,133.235223 173.061977,86.4965181 173.061977,86.4965181 Z" id="Triangle-13" fill="#FB9D7A" sketch:type="MSShapeGroup" transform="translate(174.664954, 121.661472) scale(-1, 1) rotate(90.000000) translate(-174.664954, -121.661472) "></path>
            <path d="M121.897023,136.936752 C121.897023,136.936752 149.508485,184.879246 145.625792,197.411146 C141.743099,209.943047 107.726395,211.146836 101.863883,197.411146 C96.0013712,183.675456 121.897023,136.936752 121.897023,136.936752 Z" id="Triangle-11" fill="#FB9D7A" sketch:type="MSShapeGroup"></path>
            <path d="M121.786697,35.4459585 C121.786697,35.4459585 149.398159,83.3884523 145.515466,95.920353 C141.632773,108.452254 107.616069,109.656043 101.753557,95.920353 C95.8910451,82.1846631 121.786697,35.4459585 121.786697,35.4459585 Z" id="Triangle-16" fill="#FB9D7A" sketch:type="MSShapeGroup" transform="translate(123.389674, 70.610912) scale(1, -1) translate(-123.389674, -70.610912) "></path>
        </g>
    </g>
</svg>