<?xml version="1.0" encoding="UTF-8" standalone="no"?>
<svg width="240px" height="240px" viewBox="0 0 240 240" version="1.1" xmlns="http://www.w3.org/2000/svg" xmlns:xlink="http://www.w3.org/1999/xlink" xmlns:sketch="http://www.bohemiancoding.com/sketch/ns">
    <!-- Generator: Sketch 3.2.2 (9983) - http://www.bohemiancoding.com/sketch -->
    <title>Grapes</title>
    <desc>Created with Sketch.</desc>
    <defs></defs>
    <g id="Page-1" stroke="none" stroke-width="1" fill="none" fill-rule="evenodd" sketch:type="MSPage">
        <g id="Grapes" sketch:type="MSArtboardGroup">
            <g id="Group" sketch:type="MSLayerGroup" transform="translate(112.509274, 108.975009) rotate(-150.000000) translate(-112.509274, -108.975009) translate(22.009274, -15.024991)">
                <path d="M60.669873,187.596788 L86.7253546,187.596788 L74.6610339,247.596788 L60.669873,247.596788 L60.669873,187.596788 Z" id="Rectangle-7" fill="#DEB28B" sketch:type="MSShapeGroup" transform="translate(73.697614, 217.596788) scale(-1, -1) translate(-73.697614, -217.596788) "></path>
                <circle id="Oval-89" stroke="#7ED321" stroke-width="10" fill="#B8E986" sketch:type="MSShapeGroup" transform="translate(30.000000, 150.000000) rotate(-180.000000) translate(-30.000000, -150.000000) " cx="30" cy="150" r="30"></circle>
                <circle id="Oval-92" stroke="#7ED321" stroke-width="10" fill="#B8E986" sketch:type="MSShapeGroup" transform="translate(90.000000, 150.000000) rotate(-180.000000) translate(-90.000000, -150.000000) " cx="90" cy="150" r="30"></circle>
                <path d="M150,180 C166.568542,180 180,166.568542 180,150 C180,133.431458 166.568542,120 150,120 C133.431458,120 120,133.431458 120,150 C120,166.568542 133.431458,180 150,180 Z" id="Oval-90" stroke="#7ED321" stroke-width="10" fill="#B8E986" sketch:type="MSShapeGroup" transform="translate(150.000000, 150.000000) rotate(-180.000000) translate(-150.000000, -150.000000) "></path>
                <path d="M90,60 C106.568542,60 120,46.5685425 120,30 C120,13.4314575 106.568542,2.7000624e-13 90,2.7000624e-13 C73.4314575,2.7000624e-13 60,13.4314575 60,30 C60,46.5685425 73.4314575,60 90,60 Z" id="Oval-94" stroke="#7ED321" stroke-width="10" fill="#B8E986" sketch:type="MSShapeGroup" transform="translate(90.000000, 30.000000) rotate(-180.000000) translate(-90.000000, -30.000000) "></path>
                <circle id="Oval-91" stroke="#7ED321" stroke-width="10" fill="#B8E986" sketch:type="MSShapeGroup" transform="translate(60.000000, 90.000000) rotate(-180.000000) translate(-60.000000, -90.000000) " cx="60" cy="90" r="30"></circle>
                <path d="M120,120 C136.568542,120 150,106.568542 150,90 C150,73.4314575 136.568542,60 120,60 C103.431458,60 90,73.4314575 90,90 C90,106.568542 103.431458,120 120,120 Z" id="Oval-93" stroke="#7ED321" stroke-width="10" fill="#B8E986" sketch:type="MSShapeGroup" transform="translate(120.000000, 90.000000) rotate(-180.000000) translate(-120.000000, -90.000000) "></path>
            </g>
        </g>
    </g>
</svg>