<?xml version="1.0" encoding="UTF-8" standalone="no"?>
<svg width="284px" height="69px" viewBox="0 0 284 69" version="1.1" xmlns="http://www.w3.org/2000/svg" xmlns:xlink="http://www.w3.org/1999/xlink" xmlns:sketch="http://www.bohemiancoding.com/sketch/ns">
    <!-- Generator: Sketch 3.2.2 (9983) - http://www.bohemiancoding.com/sketch -->
    <title>Group</title>
    <desc>Created with Sketch.</desc>
    <defs></defs>
    <g id="Page-1" stroke="none" stroke-width="1" fill="none" fill-rule="evenodd" sketch:type="MSPage">
        <g id="JuiceSherpaHome" sketch:type="MSArtboardGroup" transform="translate(-15.000000, -13.000000)">
            <g id="Group" sketch:type="MSLayerGroup" transform="translate(15.000000, 13.000000)">
                <g id="Body" transform="translate(107.000000, 21.000000)" sketch:type="MSShapeGroup">
                    <path d="M18.5,39.7564858 C28.7172679,39.7564858 37,25.8075744 37,16.6792453 C37,7.55091621 28.7172679,0.150943396 18.5,0.150943396 C8.28273213,0.150943396 0,7.55091621 0,16.6792453 C0,25.8075744 8.28273213,39.7564858 18.5,39.7564858 Z" fill="#FFFFFF"></path>
                    <ellipse id="BodyTop" fill="#FC5555" cx="18.6497976" cy="7.01886792" rx="13.5566802" ry="7.01886792"></ellipse>
                    <path d="M16.8471968,30.1642099 C16.8471968,30.1642099 12.4634149,34.1842895 12.4334348,36.4513561 C12.4034546,38.7184228 15.2325516,37.1951721 16.7170016,40.009434 C18.2014516,42.8236959 18.5186685,47.9879127 18.5186685,47.9879127 C18.5186685,47.9879127 21.8474115,42.9322862 21.5146199,39.8918042 C21.1818283,36.8513223 17.0723499,38.3687788 17.1593726,35.5689858 C17.2463953,32.7691929 21.839669,29.4339623 21.839669,29.4339623 L16.8471968,30.1642099 Z" id="Path-1" fill="#FFFFFF"></path>
                </g>
                <g id="Head" transform="translate(103.000000, 0.000000)" fill="#FFFFFF" sketch:type="MSShapeGroup">
                    <path d="M24.0145058,12.4444444 C27.8783911,12.4444444 38.9296567,9.02854291 38.9296567,4.81481481 C38.9296567,0.601086724 32.606862,0 28.7429767,0 C24.8790914,0 17.0183226,0.601086724 17.0183226,4.81481481 C17.0183226,9.02854291 20.1506205,12.4444444 24.0145058,12.4444444 Z" id="Oval-6"></path>
                    <ellipse id="Oval-7" cx="25.0820611" cy="12.4444444" rx="2.90267176" ry="7.40740741"></ellipse>
                    <path d="M15.2099535,20.6070602 C17.6274963,23.6242009 16.7754199,22.5049688 18.6871124,25.5028935 C20.5988048,28.5008182 20.1076306,32.6377315 22.3892981,31.8657407 C24.6709655,31.09375 23.0725191,20.207511 23.0725191,15.1851852 C23.0725191,8.59867817 20.240122,3.25925926 16.7461832,3.25925926 C13.2522444,3.25925926 10.4198473,8.59867817 10.4198473,15.1851852 C10.4198473,17.82044 12.7924106,17.5899195 15.2099535,20.6070602 Z" id="BottomLeaf" stroke="#FC5555" stroke-width="0.9"></path>
                    <path d="M11.5996392,16.720727 C17.4776775,16.720727 21.360687,13.822836 21.360687,9.51972386 C21.360687,5.21661174 16.5955955,1.72825013 10.7175573,1.72825013 C4.83951899,1.72825013 0.0744274809,5.21661174 0.0744274809,9.51972386 C0.0744274809,13.822836 5.72160093,16.720727 11.5996392,16.720727 Z" id="TopLeaf"></path>
                </g>
                <path d="M165.63375,49.7225 C165.453749,50.7350051 164.970004,51.6799956 164.1825,52.5575 C163.394996,53.4350044 162.495005,53.9974988 161.4825,54.245 C158.624986,54.9650036 156.723755,55.325 155.77875,55.325 C154.136242,55.325 152.420634,54.8918793 150.631875,54.025625 C148.843116,53.1593707 147.397506,52.0850064 146.295,50.8025 L147.88125,49.35125 C150.131261,51.6012613 152.819984,52.72625 155.9475,52.72625 C157.320007,52.72625 158.613744,52.4787525 159.82875,51.98375 C161.336258,51.376247 162.292498,50.5325054 162.6975,49.4525 C162.832501,49.1824987 162.9,48.946251 162.9,48.74375 C162.9,48.6537496 162.843751,48.3950021 162.73125,47.9675 C162.461249,46.9099947 161.955004,46.2687511 161.2125,46.04375 C160.379996,45.7962488 159.322506,45.6275005 158.04,45.5375 C157.9725,45.5375 156.90376,45.5150002 154.83375,45.47 C154.316247,45.4925001 153.573755,45.4700003 152.60625,45.4025 C152.51625,45.3799999 152.190003,45.267501 151.6275,45.065 C149.894991,44.4349969 148.635004,43.5687555 147.8475,42.46625 C147.622499,41.0487429 147.51,40.1825016 147.51,39.8675 C147.51,38.8999952 147.746248,38.1350028 148.21875,37.5725 C148.398751,37.369999 148.724998,37.066252 149.1975,36.66125 C151.26751,34.9062412 153.29249,34.0737496 155.2725,34.16375 C158.692517,34.3212508 161.324991,35.1537425 163.17,36.66125 C163.552502,36.6837501 163.901248,36.8412485 164.21625,37.13375 C164.21625,37.1562501 164.2275,37.1899998 164.25,37.235 L164.25,37.33625 C164.25,37.5612511 164.058752,37.8537482 163.67625,38.21375 C163.473749,38.3937509 163.226251,38.6637482 162.93375,39.02375 C162.86625,39.0687502 162.765001,39.09125 162.63,39.09125 C162.494999,39.09125 162.281251,38.990001 161.98875,38.7875 C161.89875,38.6974996 161.786251,38.6075005 161.65125,38.5175 L161.3475,38.315 C159.479991,37.4599957 157.455011,37.0325 155.2725,37.0325 C153.35999,37.0325 151.807506,37.5274951 150.615,38.5175 C150.052497,38.9900024 149.77125,39.4962473 149.77125,40.03625 C149.77125,40.238751 149.81625,40.441249 149.90625,40.64375 C150.603753,42.2862582 152.459985,43.1075 155.475,43.1075 C155.677501,43.1075 156.059997,43.0962501 156.6225,43.07375 L157.80375,43.07375 C158.793755,43.0962501 159.569997,43.1862492 160.1325,43.34375 C161.302506,43.6812517 162.089998,43.951249 162.495,44.15375 C164.610011,45.2562555 165.6675,47.0449876 165.6675,49.52 C165.6675,49.6100005 165.65625,49.6774998 165.63375,49.7225 L165.63375,49.7225 Z M188.701875,52.895 L188.701875,53.84 L186.406875,53.975 L186.406875,45.50375 C186.339375,45.2337487 186.193126,45.0537505 185.968125,44.96375 C183.965615,45.0312503 182.51438,45.065 181.614375,45.065 C177.789356,45.065 175.235631,45.0987497 173.953125,45.16625 L173.581875,45.50375 C173.626875,46.3587543 173.626875,47.4949929 173.581875,48.9125 C173.514375,50.6900089 173.480625,51.8262475 173.480625,52.32125 C173.480625,52.9062529 173.491875,53.3449985 173.514375,53.6375 C173.244374,53.840001 172.929377,53.94125 172.569375,53.94125 C172.299374,53.94125 171.781879,53.840001 171.016875,53.6375 L170.814375,53.3675 L170.814375,50.33 C170.814375,50.33 170.881874,45.0650527 171.016875,34.535 C171.106875,34.5575001 171.241874,34.56875 171.421875,34.56875 C171.579376,34.56875 171.815623,34.5406253 172.130625,34.484375 C172.445627,34.4281247 172.693124,34.4 172.873125,34.4 C173.120626,34.4 173.334374,34.4449996 173.514375,34.535 L173.581875,41.85875 C173.694376,42.061251 173.891249,42.1849998 174.1725,42.23 C174.453751,42.2750002 174.718124,42.3087499 174.965625,42.33125 C175.348127,42.3987503 175.663124,42.4325 175.910625,42.4325 C176.495628,42.4325 177.384369,42.4212501 178.576875,42.39875 L181.209375,42.39875 C182.716883,42.39875 184.213118,42.4324997 185.698125,42.5 L185.968125,42.23 C186.035625,41.9149984 186.069375,41.4200034 186.069375,40.745 C186.069375,40.3174979 186.035625,39.6818792 185.968125,38.838125 C185.900625,37.9943708 185.866875,37.3587521 185.866875,36.93125 C185.866875,36.121246 185.956874,35.412503 186.136875,34.805 C186.744378,34.6249991 187.318122,34.535 187.858125,34.535 C188.195627,34.535 188.443124,34.5574998 188.600625,34.6025 C188.780626,34.8500012 188.870625,35.2437473 188.870625,35.78375 C188.870625,36.0762515 188.89875,36.5093721 188.955,37.083125 C189.01125,37.6568779 189.039375,38.0899985 189.039375,38.3825 C189.039375,40.0025081 188.983126,42.4268589 188.870625,45.655625 C188.758124,48.8843911 188.701875,51.297492 188.701875,52.895 L188.701875,52.895 Z M212.00625,53.165 C212.00625,53.3225008 212.0175,53.4462496 212.04,53.53625 L211.8375,53.73875 L210.4875,53.73875 C209.879997,53.7612501 209.418752,53.7725 209.10375,53.7725 C207.978744,53.7725 206.296886,53.7500002 204.058125,53.705 C201.819364,53.6599998 200.137506,53.6375 199.0125,53.6375 C197.594993,53.6375 196.155007,53.6712497 194.6925,53.73875 C194.557499,53.2212474 194.49,52.7037526 194.49,52.18625 C194.49,51.7362478 194.546249,51.0612545 194.65875,50.16125 C194.771251,49.2612455 194.8275,48.5862523 194.8275,48.13625 C194.8275,47.7762482 194.805,47.2475035 194.76,46.55 C194.715,45.8524965 194.6925,45.3237518 194.6925,44.96375 C194.6925,44.3112467 194.720625,43.3268816 194.776875,42.010625 C194.833125,40.6943684 194.86125,39.7100033 194.86125,39.0575 C194.86125,38.1124953 194.805001,37.2012544 194.6925,36.32375 C194.557499,35.2662447 194.49,34.8499989 194.49,35.075 C194.49,34.6924981 194.692498,34.50125 195.0975,34.50125 C195.1875,34.50125 195.328124,34.5124999 195.519375,34.535 C195.710626,34.5575001 195.862499,34.56875 195.975,34.56875 C196.200001,34.56875 196.379999,34.5125006 196.515,34.4 C197.775006,34.5800009 199.43999,34.67 201.51,34.67 C202.297504,34.67 203.478742,34.6531252 205.05375,34.619375 C206.628758,34.5856248 207.809996,34.56875 208.5975,34.56875 L209.57625,34.56875 C210.026252,34.5912501 210.352499,34.6025 210.555,34.6025 C210.712501,34.5574998 210.78,34.535 210.7575,34.535 C210.825,34.4674997 210.90375,34.43375 210.99375,34.43375 C211.128751,34.43375 211.23,34.4899994 211.2975,34.6025 L211.0275,36.52625 C209.429992,36.7062509 207.348763,36.79625 204.78375,36.79625 C204.198747,36.79625 203.321256,36.7850001 202.15125,36.7625 L199.51875,36.7625 C198.776246,36.7625 198.225002,36.7737499 197.865,36.79625 L197.35875,37.33625 C197.42625,37.6737517 197.46,38.0224982 197.46,38.3825 C197.46,38.6750015 197.415,39.1418718 197.325,39.783125 C197.235,40.4243782 197.20125,40.9249982 197.22375,41.285 L197.2575,41.72375 L197.62875,42.095 C198.191253,42.2300007 198.911246,42.2975 199.78875,42.2975 C201.83626,42.2975 202.601253,42.2862501 202.08375,42.26375 C202.983755,42.2862501 203.737497,42.4099989 204.345,42.635 L204.345,44.28875 C203.602496,44.3562503 202.871254,44.39 202.15125,44.39 C199.743738,44.39 198.168754,44.4799991 197.42625,44.66 L197.2575,44.8625 L197.35875,50.90375 L197.7975,51.3425 C198.315003,51.3199999 199.079995,51.30875 200.0925,51.30875 C201.150005,51.30875 202.730614,51.3481246 204.834375,51.426875 C206.938136,51.5056254 208.518745,51.545 209.57625,51.545 C210.611255,51.545 211.387497,51.5337501 211.905,51.51125 C212.040001,51.6687508 212.1075,51.8712488 212.1075,52.11875 C212.1075,52.2537507 212.090625,52.4337489 212.056875,52.65875 C212.023125,52.8837511 212.00625,53.0524994 212.00625,53.165 L212.00625,53.165 Z M235.479375,42.46625 C235.456875,42.5787506 235.310626,42.8599978 235.040625,43.31 C233.98312,45.1550092 232.700633,46.0775 231.193125,46.0775 C231.103125,46.1450003 230.956876,46.2687491 230.754375,46.44875 C231.069377,47.4837552 231.68812,48.7549925 232.610625,50.2625 C233.735631,52.1300093 234.433124,53.367497 234.703125,53.975 L234.703125,54.1775 C234.478124,54.1324998 234.298126,54.11 234.163125,54.11 C234.028124,54.11 233.814376,54.1212499 233.521875,54.14375 C233.229374,54.1662501 233.004376,54.1775 232.846875,54.1775 C232.171872,54.1775 231.699376,53.9300025 231.429375,53.435 L227.750625,46.44875 L227.278125,46.0775 C226.783123,46.1225002 226.400626,46.145 226.130625,46.145 C225.725623,46.145 225.118129,46.1225002 224.308125,46.0775 C223.498121,46.0324998 222.890627,46.01 222.485625,46.01 C221.608121,46.01 220.888128,46.0774993 220.325625,46.2125 L220.055625,46.65125 C220.078125,46.8762511 220.089375,47.2249976 220.089375,47.6975 C220.089375,48.2825029 220.044375,49.1543692 219.954375,50.313125 C219.864375,51.4718808 219.819375,52.3437471 219.819375,52.92875 C219.819375,53.1987514 219.841875,53.6037473 219.886875,54.14375 L219.583125,54.34625 C219.358124,54.2787497 219.110626,54.245 218.840625,54.245 C218.615624,54.245 218.446876,54.2562499 218.334375,54.27875 C217.524371,54.27875 217.119375,54.0425024 217.119375,53.57 C217.119375,53.4124992 217.141875,53.2212511 217.186875,52.99625 C217.231875,52.7712489 217.288125,51.8037586 217.355625,50.09375 C217.445625,48.1137401 217.490625,46.0775105 217.490625,43.985 L217.490625,40.2725 C217.468125,38.6074917 217.456875,37.3587542 217.456875,36.52625 L217.456875,34.1975 C217.974378,34.1074996 218.536872,34.0625 219.144375,34.0625 C219.571877,34.0625 220.229996,34.0962497 221.11875,34.16375 C222.007504,34.2312503 222.676873,34.265 223.126875,34.265 C223.891879,34.265 224.578122,34.1750009 225.185625,33.995 C226.738133,34.2200011 228.301867,34.4449989 229.876875,34.67 C231.721884,34.9850016 233.15062,35.5812456 234.163125,36.45875 C234.635627,36.863752 234.973124,37.2349983 235.175625,37.5725 C235.490627,38.1125027 235.648125,39.1024928 235.648125,40.5425 C235.648125,41.4425045 235.591876,42.0837481 235.479375,42.46625 L235.479375,42.46625 Z M231.969375,38.1125 C230.709369,37.302496 227.941896,36.8525005 223.666875,36.7625 C223.486874,36.7625 223.104378,36.7512501 222.519375,36.72875 C222.069373,36.7062499 221.698126,36.695 221.405625,36.695 C220.888122,36.695 220.550626,36.8412485 220.393125,37.13375 L220.325625,42.905 L220.595625,43.14125 C221.51813,43.4112514 222.856866,43.54625 224.611875,43.54625 C224.971877,43.54625 225.511871,43.5350001 226.231875,43.5125 L227.851875,43.5125 L228.931875,43.5125 C228.954375,43.5125 229.246872,43.4675005 229.809375,43.3775 C231.721885,43.0849985 232.801874,42.443755 233.049375,41.45375 C233.094375,41.2737491 233.116875,41.0150017 233.116875,40.6775 C233.116875,39.4624939 232.734379,38.6075025 231.969375,38.1125 L231.969375,38.1125 Z M257.6025,44.01875 C257.219998,44.4912524 256.488755,44.8624987 255.40875,45.1325 C255.228749,45.1775002 254.396257,45.3349987 252.91125,45.605 C252.663749,45.6725003 252.292502,45.7456246 251.7975,45.824375 C251.302498,45.9031254 250.380007,45.9425 249.03,45.9425 C247.139991,45.9425 245.430008,45.8975005 243.9,45.8075 L243.5625,46.17875 C243.5175,46.9887541 243.489375,48.2149918 243.478125,49.8575 C243.466875,51.5000082 243.43875,52.726246 243.39375,53.53625 L240.96375,53.53625 C240.89625,53.2887488 240.8625,53.0525011 240.8625,52.8275 C240.8625,52.6024989 240.913124,52.2537524 241.014375,51.78125 C241.115626,51.3087476 241.16625,50.9487512 241.16625,50.70125 C241.16625,49.3962435 241.138125,47.444388 241.081875,44.845625 C241.025625,42.246862 240.9975,40.3062564 240.9975,39.02375 C240.9975,36.9087394 241.02,35.3225053 241.065,34.265 L241.36875,34.09625 C242.426255,34.2087506 243.393746,34.265 244.27125,34.265 C244.923753,34.265 245.891244,34.2368753 247.17375,34.180625 C248.456256,34.1243747 249.412497,34.09625 250.0425,34.09625 C252.697513,34.09625 254.823742,34.5237457 256.42125,35.37875 C256.601251,35.4462503 256.848748,35.5924989 257.16375,35.8175 C257.18625,35.8400001 257.287499,35.9974985 257.4675,36.29 C258.210004,37.5050061 258.58125,38.8662425 258.58125,40.37375 C258.58125,42.0162582 258.255003,43.2312461 257.6025,44.01875 L257.6025,44.01875 Z M255.40875,38.315 C254.913748,37.3924954 253.62001,36.93125 251.5275,36.93125 C248.444985,36.93125 246.510004,36.8750006 245.7225,36.7625 C245.587499,36.8750006 245.385001,36.93125 245.115,36.93125 C245.025,36.93125 244.878751,36.9143752 244.67625,36.880625 C244.473749,36.8468748 244.316251,36.83 244.20375,36.83 C244.001249,36.83 243.810001,36.8974993 243.63,37.0325 C243.585,37.7075034 243.5625,38.2249982 243.5625,38.585 C243.5625,39.0800025 243.590625,39.8168701 243.646875,40.795625 C243.703125,41.7743799 243.73125,42.5112475 243.73125,43.00625 L246.6,43.07375 C246.937502,43.07375 247.589995,43.0962498 248.5575,43.14125 C249.367504,43.1862502 250.008748,43.20875 250.48125,43.20875 C254.103768,43.20875 255.915,42.4212579 255.915,40.84625 C255.915,40.5312484 255.830626,40.0981278 255.661875,39.546875 C255.493124,38.9956222 255.40875,38.5850014 255.40875,38.315 L255.40875,38.315 Z M281.919375,54.00875 C281.784374,54.00875 281.570626,53.9975001 281.278125,53.975 L280.636875,53.975 C280.321873,53.569998 280.006877,52.9287544 279.691875,52.05125 C279.444374,51.3762466 279.208126,50.6900035 278.983125,49.9925 C278.330622,48.3499918 277.318132,47.52875 275.945625,47.52875 L275.675625,47.52875 C275.563124,47.5512501 275.473125,47.5625 275.405625,47.5625 C275.023123,47.5625 274.438129,47.5343753 273.650625,47.478125 C272.863121,47.4218747 272.266877,47.39375 271.861875,47.39375 C271.636874,47.39375 271.305002,47.4274997 270.86625,47.495 C270.427498,47.5625003 270.118126,47.59625 269.938125,47.59625 C269.780624,47.59625 269.589376,47.5625003 269.364375,47.495 C269.071874,47.4274997 268.880625,47.39375 268.790625,47.39375 C268.430623,47.9337527 267.811879,49.0362417 266.934375,50.70125 C266.191871,52.096257 265.516878,53.1649963 264.909375,53.9075 C264.481873,53.9750003 264.054377,54.00875 263.626875,54.00875 C263.131873,54.00875 262.726877,53.907501 262.411875,53.705 C263.806882,50.8924859 266.00061,46.7075278 268.993125,41.15 C269.173126,40.8574985 269.431873,40.4187529 269.769375,39.83375 C269.904376,39.5187484 270.118124,39.057503 270.410625,38.45 C270.703126,37.842497 270.995624,37.2462529 271.288125,36.66125 C271.648127,35.9412464 271.895624,35.3112527 272.030625,34.77125 C272.210626,34.5237488 272.480623,34.4 272.840625,34.4 C273.020626,34.4 273.273748,34.4337497 273.6,34.50125 C273.926252,34.5687503 274.168124,34.6025 274.325625,34.6025 L274.426875,34.6025 C274.719376,35.1200026 275.135622,35.8962448 275.675625,36.93125 C275.675625,36.93125 275.900623,37.4937444 276.350625,38.61875 C277.115629,40.5312596 278.240618,43.0737341 279.725625,46.24625 C281.458134,49.9137683 282.616872,52.4337431 283.201875,53.80625 C282.841873,53.9412507 282.414377,54.00875 281.919375,54.00875 L281.919375,54.00875 Z M275.169375,42.46625 C275.079375,42.1962487 274.933126,41.7800028 274.730625,41.2175 C274.415623,40.6324971 273.965628,39.7550059 273.380625,38.585 C273.335625,38.5624999 273.268125,38.55125 273.178125,38.55125 C273.065624,38.55125 272.986875,38.5624999 272.941875,38.585 C272.784374,38.9450018 272.22188,39.9687416 271.254375,41.65625 C270.534371,42.9162563 270.106876,43.9962455 269.971875,44.89625 C270.646878,44.8737499 271.558119,44.8849998 272.705625,44.93 C274.033132,44.9975003 274.944373,45.03125 275.439375,45.03125 C275.776877,45.03125 276.035624,45.0200001 276.215625,44.9975 C276.125625,44.7499988 275.776878,43.9062572 275.169375,42.46625 L275.169375,42.46625 Z" id="SHERPA" fill="#FFFFFF" sketch:type="MSShapeGroup"></path>
                <path d="M14.23375,52.86125 C13.8512481,52.8837501 13.3225034,53.0749982 12.6475,53.435 C11.9724966,53.7950018 11.4212521,53.975 10.99375,53.975 C10.7012485,53.975 10.2625029,53.9862499 9.6775,54.00875 C9.09249708,54.0312501 8.65375146,54.0425 8.36125,54.0425 C5.61623627,54.0425 3.67000574,53.4912555 2.5225,52.38875 C2.22999854,52.0962485 1.87000214,51.6012535 1.4425,50.90375 C1.01499786,50.2062465 0.643751575,49.7112515 0.32875,49.41875 C0.41875045,49.0587482 0.699997637,48.7887509 1.1725,48.60875 C1.84750337,48.3612488 2.24124944,48.1925005 2.35375,48.1025 C2.60125124,48.5525023 3.01749707,49.0699971 3.6025,49.655 C4.3225036,50.3525035 4.78374899,50.8362487 4.98625,51.10625 C5.99875506,51.713753 7.20249302,52.0175 8.5975,52.0175 C9.83500619,52.0175 10.9599949,51.8375018 11.9725,51.4775 C12.7375038,51.2074987 13.3112481,50.6675041 13.69375,49.8575 C14.0312517,49.1149963 14.3574984,48.3837536 14.6725,47.66375 L14.6725,43.00625 C14.6725,40.3512367 14.6612501,38.3600066 14.63875,37.0325 C14.0537471,37.0325 12.76001,37.0549998 10.7575,37.1 C9.1374919,37.1450002 7.83250495,37.1675 6.8425,37.1675 C6.41499786,37.1675 5.77937922,37.1450002 4.935625,37.1 C4.09187078,37.0549998 3.45625214,37.0325 3.02875,37.0325 C2.3087464,37.0325 1.75750191,37.0549998 1.375,37.1 C1.42000022,36.8749989 1.42000022,36.5937517 1.375,36.25625 C1.30749966,35.8287479 1.27375,35.5587506 1.27375,35.44625 C1.27375,34.9062473 1.50999764,34.63625 1.9825,34.63625 L3.0625,34.63625 C3.53500236,34.6587501 3.88374887,34.67 4.10875,34.67 L7.01125,34.67 C7.88875439,34.67 9.19374134,34.6587501 10.92625,34.63625 C12.6587587,34.6137499 13.9524957,34.6025 14.8075,34.6025 C15.0550012,34.6025 15.4262475,34.6193748 15.92125,34.653125 C16.4162525,34.6868752 16.7987487,34.70375 17.06875,34.70375 C17.0462499,35.1762524 17.035,35.8737454 17.035,36.79625 C17.035,37.403753 17.0462499,38.3318688 17.06875,39.580625 C17.0912501,40.8293812 17.1025,41.7687469 17.1025,42.39875 C17.1025,45.3462647 17.0350007,47.2474957 16.9,48.1025 C16.5399982,50.307511 15.6512571,51.8937452 14.23375,52.86125 L14.23375,52.86125 Z M42.58375,46.38125 C42.58375,47.5512559 42.5725001,48.2262491 42.55,48.40625 C42.5274999,48.5862509 42.4375008,48.9687471 42.28,49.55375 C41.7624974,51.4662596 40.8962561,52.7487467 39.68125,53.40125 C38.1062421,54.2337542 35.9575136,54.65 33.235,54.65 C31.5249914,54.65 30.473127,54.6050005 30.079375,54.515 C29.685623,54.4249996 29.1512534,54.2056267 28.47625,53.856875 C27.8012466,53.5081233 27.3400012,53.1987514 27.0925,52.92875 C26.9349992,52.7937493 26.6987516,52.4562527 26.38375,51.91625 C25.2587444,49.9812403 24.69625,47.2925172 24.69625,43.85 C24.69625,43.242497 24.7131248,42.3312561 24.746875,41.11625 C24.7806252,39.9012439 24.7975,38.9787532 24.7975,38.34875 C24.7975,37.1112438 24.7412506,36.0537544 24.62875,35.17625 C24.8987514,34.9512489 25.2699976,34.83875 25.7425,34.83875 C26.0125013,34.83875 26.4399971,34.8837496 27.025,34.97375 C27.1825008,36.2562564 27.2949997,38.4274847 27.3625,41.4875 C27.3625,42.2075036 27.3962497,43.2762429 27.46375,44.69375 C27.5087502,44.9637514 27.5649997,45.3687473 27.6325,45.90875 C27.6550001,46.6062535 27.6774999,47.3037465 27.7,48.00125 C27.7900004,48.8112541 28.0149982,49.4524976 28.375,49.925 C28.982503,50.7125039 29.8937439,51.3312478 31.10875,51.78125 C32.1662553,52.186252 33.2574944,52.38875 34.3825,52.38875 C36.0250082,52.38875 37.2287462,52.1750021 37.99375,51.7475 C38.3087516,51.5674991 38.6237484,51.2975018 38.93875,50.9375 C39.6587536,50.127496 40.1087491,48.9575077 40.28875,47.4275 C40.3562503,46.1674937 40.4237497,44.8962564 40.49125,43.61375 C40.5362502,42.8262461 40.55875,42.2637517 40.55875,41.92625 C40.55875,41.318747 40.4125015,39.0237699 40.12,35.04125 C40.7950034,34.8612491 41.3124982,34.77125 41.6725,34.77125 C41.875001,34.77125 42.077499,34.8049997 42.28,34.8725 C42.5275012,36.6275088 42.65125,38.809987 42.65125,41.42 C42.65125,41.9600027 42.6400001,42.7812445 42.6175,43.88375 C42.5949999,44.9862555 42.58375,45.8187472 42.58375,46.38125 L42.58375,46.38125 Z M50.88625,53.94125 C50.6612489,54.1212509 50.4362511,54.21125 50.21125,54.21125 C50.0537492,54.21125 49.8231265,54.1718754 49.519375,54.093125 C49.2156235,54.0143746 48.9962507,53.975 48.86125,53.975 C48.6812491,53.975 48.5575003,53.9974998 48.49,54.0425 L48.32125,53.84 C48.4337506,52.0624911 48.49,49.9362624 48.49,47.46125 C48.49,46.4262448 48.4675002,44.8906352 48.4225,42.854375 C48.3774998,40.8181148 48.355,39.2937551 48.355,38.28125 C48.355,36.7062421 48.5237483,35.4462547 48.86125,34.50125 C49.063751,34.6362507 49.3787479,34.70375 49.80625,34.70375 C50.3462527,34.7262501 50.7062491,34.7599998 50.88625,34.805 C50.9312502,38.1800169 50.95375,40.6999917 50.95375,42.365 L50.95375,46.44875 C50.95375,48.1137583 50.9312502,50.6112334 50.88625,53.94125 L50.88625,53.94125 Z M73.6,35.1425 L73.6,35.10875 C73.8250011,35.1312501 74.1737476,35.3112483 74.64625,35.64875 C74.9837517,35.8737511 75.3212483,36.1099988 75.65875,36.3575 C75.8162508,36.4475005 76.0412485,36.593749 76.33375,36.79625 C76.6487516,37.0662514 76.80625,37.3812482 76.80625,37.74125 C76.80625,37.8987508 76.7725003,38.0449993 76.705,38.18 C76.6599998,38.2250002 76.536251,38.348749 76.33375,38.55125 C75.7487471,39.1812532 75.3100015,39.49625 75.0175,39.49625 C74.9949999,39.49625 74.9612502,39.4850001 74.91625,39.4625 L74.78125,39.4625 C73.3637429,38.5624955 72.3400032,37.9662515 71.71,37.67375 C70.517494,37.0887471 69.3925053,36.79625 68.335,36.79625 C65.8599876,36.79625 63.7000092,37.5612424 61.855,39.09125 C61.6074988,39.293751 61.281252,39.6199978 60.87625,40.07 C60.8087497,40.2275008 60.6850009,40.4637484 60.505,40.77875 C59.8074965,42.4437583 59.45875,43.9512433 59.45875,45.30125 C59.45875,46.7412572 59.8299963,47.9787448 60.5725,49.01375 C60.9100017,49.1712508 61.3149976,49.5199973 61.7875,50.06 C62.2600024,50.6000027 62.6649983,50.9487492 63.0025,51.10625 C64.397507,51.7812534 65.9162418,52.11875 67.55875,52.11875 C70.3262638,52.11875 72.7899892,51.320008 74.95,49.7225 C75.0175003,49.7450001 75.0849997,49.75625 75.1525,49.75625 C75.2650006,49.75625 75.416874,49.7112505 75.608125,49.62125 C75.799376,49.5312496 75.9399996,49.48625 76.03,49.48625 C76.2100009,49.48625 76.3337497,49.5649992 76.40125,49.7225 C76.806252,49.9700012 77.0312498,50.4762462 77.07625,51.24125 C74.8037386,52.9062583 72.4975117,54.0087473 70.1575,54.54875 C69.5724971,54.6837507 69.1900009,54.75125 69.01,54.75125 C64.9374796,54.75125 62.0237588,53.851259 60.26875,52.05125 C59.8412479,51.6237479 59.3687526,50.9712544 58.85125,50.09375 C58.243747,49.0812449 57.8162512,48.4062517 57.56875,48.06875 C57.2312483,47.0112447 57.0625,45.9537553 57.0625,44.89625 C57.0625,42.5562383 57.7937427,40.283761 59.25625,38.07875 C59.5937517,37.5837475 59.8862488,37.2181262 60.13375,36.981875 C60.3812512,36.7456238 60.7637474,36.4700016 61.28125,36.155 C63.7112622,34.7149928 66.1974873,33.995 68.74,33.995 C70.0675066,33.995 71.2599947,34.197498 72.3175,34.6025 C73.2625047,34.9625018 73.6900005,35.1425 73.6,35.1425 L73.6,35.1425 Z M100.2625,53.165 C100.2625,53.3225008 100.27375,53.4462496 100.29625,53.53625 L100.09375,53.73875 L98.74375,53.73875 C98.136247,53.7612501 97.6750016,53.7725 97.36,53.7725 C96.2349944,53.7725 94.5531362,53.7500002 92.314375,53.705 C90.0756138,53.6599998 88.3937556,53.6375 87.26875,53.6375 C85.8512429,53.6375 84.4112573,53.6712497 82.94875,53.73875 C82.8137493,53.2212474 82.74625,52.7037526 82.74625,52.18625 C82.74625,51.7362478 82.8024994,51.0612545 82.915,50.16125 C83.0275006,49.2612455 83.08375,48.5862523 83.08375,48.13625 C83.08375,47.7762482 83.0612502,47.2475035 83.01625,46.55 C82.9712498,45.8524965 82.94875,45.3237518 82.94875,44.96375 C82.94875,44.3112467 82.9768747,43.3268816 83.033125,42.010625 C83.0893753,40.6943684 83.1175,39.7100033 83.1175,39.0575 C83.1175,38.1124953 83.0612506,37.2012544 82.94875,36.32375 C82.8137493,35.2662447 82.74625,34.8499989 82.74625,35.075 C82.74625,34.6924981 82.948748,34.50125 83.35375,34.50125 C83.4437504,34.50125 83.584374,34.5124999 83.775625,34.535 C83.966876,34.5575001 84.1187494,34.56875 84.23125,34.56875 C84.4562511,34.56875 84.6362493,34.5125006 84.77125,34.4 C86.0312563,34.5800009 87.6962396,34.67 89.76625,34.67 C90.5537539,34.67 91.7349921,34.6531252 93.31,34.619375 C94.8850079,34.5856248 96.0662461,34.56875 96.85375,34.56875 L97.8325,34.56875 C98.2825023,34.5912501 98.608749,34.6025 98.81125,34.6025 C98.9687508,34.5574998 99.0362501,34.535 99.01375,34.535 C99.0812503,34.4674997 99.1599996,34.43375 99.25,34.43375 C99.3850007,34.43375 99.4862497,34.4899994 99.55375,34.6025 L99.28375,36.52625 C97.686242,36.7062509 95.6050128,36.79625 93.04,36.79625 C92.4549971,36.79625 91.5775058,36.7850001 90.4075,36.7625 L87.775,36.7625 C87.0324963,36.7625 86.4812518,36.7737499 86.12125,36.79625 L85.615,37.33625 C85.6825003,37.6737517 85.71625,38.0224982 85.71625,38.3825 C85.71625,38.6750015 85.6712505,39.1418718 85.58125,39.783125 C85.4912495,40.4243782 85.4574999,40.9249982 85.48,41.285 L85.51375,41.72375 L85.885,42.095 C86.4475028,42.2300007 87.1674956,42.2975 88.045,42.2975 C90.0925102,42.2975 90.8575026,42.2862501 90.34,42.26375 C91.2400045,42.2862501 91.993747,42.4099989 92.60125,42.635 L92.60125,44.28875 C91.8587463,44.3562503 91.1275036,44.39 90.4075,44.39 C87.999988,44.39 86.4250037,44.4799991 85.6825,44.66 L85.51375,44.8625 L85.615,50.90375 L86.05375,51.3425 C86.5712526,51.3199999 87.3362449,51.30875 88.34875,51.30875 C89.4062553,51.30875 90.9868645,51.3481246 93.090625,51.426875 C95.1943855,51.5056254 96.7749947,51.545 97.8325,51.545 C98.8675052,51.545 99.6437474,51.5337501 100.16125,51.51125 C100.296251,51.6687508 100.36375,51.8712488 100.36375,52.11875 C100.36375,52.2537507 100.346875,52.4337489 100.313125,52.65875 C100.279375,52.8837511 100.2625,53.0524994 100.2625,53.165 L100.2625,53.165 Z" id="Juice" fill="#FFFFFF" sketch:type="MSShapeGroup"></path>
            </g>
        </g>
    </g>
</svg>