<?xml version="1.0" encoding="UTF-8" standalone="no"?>
<svg width="240px" height="240px" viewBox="0 0 240 240" version="1.1" xmlns="http://www.w3.org/2000/svg" xmlns:xlink="http://www.w3.org/1999/xlink" xmlns:sketch="http://www.bohemiancoding.com/sketch/ns">
    <!-- Generator: Sketch 3.2.2 (9983) - http://www.bohemiancoding.com/sketch -->
    <title>Kale</title>
    <desc>Created with Sketch.</desc>
    <defs></defs>
    <g id="Page-1" stroke="none" stroke-width="1" fill="none" fill-rule="evenodd" sketch:type="MSPage">
        <g id="Kale" sketch:type="MSArtboardGroup">
            <path d="M119.999998,15.4042968 C113.610997,15.4042967 106.351564,18.1152343 102.351564,33.1347656 C98.3515641,48.1542968 80.0605028,48.755547 75.7617184,56.0332032 C69.4450854,66.72699 86.6679695,83.7325097 86.6679695,98.0253907 C86.6679695,113.625148 42.6994154,135.951203 58.7500001,160.341797 C74.8005847,184.732391 93.4836959,196.595703 120,196.595703" id="Oval-95" stroke="#417505" stroke-width="10" fill="#5BA20A" sketch:type="MSShapeGroup"></path>
            <path d="M184.774933,15.4042968 C178.385932,15.4042967 171.126499,18.1152343 167.126499,33.1347656 C163.126499,48.1542968 144.835438,48.755547 140.536654,56.0332032 C134.22002,66.72699 151.442905,83.7325097 151.442905,98.0253907 C151.442905,113.625148 107.474351,135.951203 123.524935,160.341797 C139.57552,184.732391 158.258631,196.595703 184.774935,196.595703" id="Oval-96" stroke="#417505" stroke-width="10" fill="#5BA20A" sketch:type="MSShapeGroup" transform="translate(152.387468, 106.000000) scale(-1, 1) translate(-152.387468, -106.000000) "></path>
            <path d="M119.150456,230 C122.973403,230 126.072515,190.812373 126.072515,142.471986 C126.072515,94.1315993 129.895462,57 126.072515,57 C122.249567,57 112.228398,94.1315993 112.228398,142.471986 C112.228398,190.812373 115.327509,230 119.150456,230 Z" id="Oval-95" fill="#417505" sketch:type="MSShapeGroup"></path>
            <path d="M126.072515,160.300981 C126.072515,136.361641 129.895462,117.973165 126.072515,117.973165 C122.249567,117.973165 112.228398,136.361641 112.228398,160.300981" id="Oval-97" fill="#417505" sketch:type="MSShapeGroup" transform="translate(120.000000, 160.810079) rotate(-45.000000) translate(-120.000000, -160.810079) "></path>
            <path d="M128.986832,90.3069613 C128.986832,74.0407845 131.805176,61.5462804 128.986832,61.5462804 C126.168488,61.5462804 118.780707,74.0407845 118.780707,90.3069613" id="Oval-99" fill="#417505" sketch:type="MSShapeGroup" transform="translate(124.510068, 90.652880) rotate(-45.000000) translate(-124.510068, -90.652880) "></path>
            <path d="M126.072515,173.300981 C126.072515,149.361641 129.895462,130.973165 126.072515,130.973165 C122.249567,130.973165 112.228398,149.361641 112.228398,173.300981" id="Oval-98" fill="#417505" sketch:type="MSShapeGroup" transform="translate(120.000000, 173.810079) scale(-1, 1) rotate(-45.000000) translate(-120.000000, -173.810079) "></path>
        </g>
    </g>
</svg>