<?xml version="1.0" encoding="UTF-8" standalone="no"?>
<svg width="240px" height="240px" viewBox="0 0 240 240" version="1.1" xmlns="http://www.w3.org/2000/svg" xmlns:xlink="http://www.w3.org/1999/xlink" xmlns:sketch="http://www.bohemiancoding.com/sketch/ns">
    <!-- Generator: Sketch 3.2.2 (9983) - http://www.bohemiancoding.com/sketch -->
    <title>Orange</title>
    <desc>Created with Sketch.</desc>
    <defs></defs>
    <g id="Page-1" stroke="none" stroke-width="1" fill="none" fill-rule="evenodd" sketch:type="MSPage">
        <g id="Orange" sketch:type="MSArtboardGroup">
            <path d="M138.945004,63.0500758 C145.848563,63.0500758 151.445004,57.4536352 151.445004,50.5500758 C151.445004,43.6465165 145.848563,-3.8913304 138.945004,-3.8913304 C132.041445,-3.8913304 126.445004,43.6465165 126.445004,50.5500758 C126.445004,57.4536352 132.041445,63.0500758 138.945004,63.0500758 Z" id="Oval-93" fill="#417505" sketch:type="MSShapeGroup" transform="translate(138.945004, 29.579373) rotate(45.000000) translate(-138.945004, -29.579373) "></path>
            <path d="M107.793379,65.59375 C114.696939,65.59375 124.377243,50.1198184 124.377243,43.216259 C124.377243,36.3126996 114.696939,-1.34765625 107.793379,-1.34765625 C100.88982,-1.34765625 89.5549961,36.3126996 89.5549961,43.216259 C89.5549961,50.1198184 100.88982,65.59375 107.793379,65.59375 Z" id="Oval-94" fill="#417505" sketch:type="MSShapeGroup" transform="translate(106.966119, 32.123047) scale(-1, -1) rotate(-225.000000) translate(-106.966119, -32.123047) "></path>
            <path d="M117.5,224.351562 C164.444204,224.351562 202.5,189.944204 202.5,143 C202.5,96.0557963 164.444204,65.59375 117.5,65.59375 C70.5557963,65.59375 32.5,96.0557963 32.5,143 C32.5,189.944204 70.5557963,224.351562 117.5,224.351562 Z" id="Oval-92" stroke="#F5B423" stroke-width="10" fill="#F47804" sketch:type="MSShapeGroup"></path>
            <path d="M160.672303,134.936752 C160.672303,134.936752 188.283765,182.879246 184.401072,195.411146 C180.518379,207.943047 146.501675,209.146836 140.639163,195.411146 C134.776651,181.675456 160.672303,134.936752 160.672303,134.936752 Z" id="Triangle-9" fill="#F5B423" sketch:type="MSShapeGroup" transform="translate(162.275280, 170.101705) rotate(-45.000000) translate(-162.275280, -170.101705) "></path>
            <path d="M73.1217436,137.936752 C73.1217436,137.936752 100.733205,185.879246 96.850512,198.411146 C92.9678192,210.943047 58.9511156,212.146836 53.0886035,198.411146 C47.2260913,184.675456 73.1217436,137.936752 73.1217436,137.936752 Z" id="Triangle-10" fill="#F5B423" sketch:type="MSShapeGroup" transform="translate(74.724720, 173.101705) rotate(45.000000) translate(-74.724720, -173.101705) "></path>
            <path d="M118.897023,156.936752 C118.897023,156.936752 146.508485,204.879246 142.625792,217.411146 C138.743099,229.943047 104.726395,231.146836 98.8638833,217.411146 C93.0013712,203.675456 118.897023,156.936752 118.897023,156.936752 Z" id="Triangle-11" fill="#F5B423" sketch:type="MSShapeGroup"></path>
        </g>
    </g>
</svg>