<?xml version="1.0" encoding="UTF-8" standalone="no"?>
<svg width="240px" height="240px" viewBox="0 0 240 240" version="1.1" xmlns="http://www.w3.org/2000/svg" xmlns:xlink="http://www.w3.org/1999/xlink" xmlns:sketch="http://www.bohemiancoding.com/sketch/ns">
    <!-- Generator: Sketch 3.2.2 (9983) - http://www.bohemiancoding.com/sketch -->
    <title>Peach</title>
    <desc>Created with Sketch.</desc>
    <defs></defs>
    <g id="Page-1" stroke="none" stroke-width="1" fill="none" fill-rule="evenodd" sketch:type="MSPage">
        <g id="Peach" sketch:type="MSArtboardGroup">
            <g id="Oval-78-+-Oval-79" sketch:type="MSLayerGroup" transform="translate(42.000000, 60.000000)" stroke="#FA8458" stroke-width="10" fill="#F8E81C">
                <path d="M78,6.09865268 C66.7989787,6.09865268 56.149399,-2.66202411 46.5217757,0.816633799 C19.1223482,10.7166093 0,33.9258993 0,66.0165679 C0,100.347288 21.8851493,138.446735 52.3768334,152.833244 C60.4023663,156.61983 69.0241284,149.977881 78,149.977881" id="Oval-78" sketch:type="MSShapeGroup"></path>
                <path d="M78,6.09865268 C89.2010213,6.09865268 99.850601,-2.66202411 109.478224,0.816633799 C136.877652,10.7166093 156,33.9258993 156,66.0165679 C156,100.347288 134.114851,138.446735 103.623167,152.833244 C95.5976337,156.61983 86.9758716,149.977881 78,149.977881" id="Oval-79" sketch:type="MSShapeGroup"></path>
            </g>
            <path d="M92,53 C98.627417,53 104,51.4178574 104,33.4797737 C104,15.54169 98.627417,1 92,1 C85.372583,1 80,15.54169 80,33.4797737 C80,51.4178574 85.372583,53 92,53 Z" id="Oval-47" fill="#7ED321" sketch:type="MSShapeGroup" transform="translate(92.000000, 27.000000) scale(1, -1) rotate(-90.000000) translate(-92.000000, -27.000000) "></path>
            <path d="M120,16 L140,16 L130.739514,55 L120,55 L120,16 Z" id="Rectangle-7" fill="#DEB28B" sketch:type="MSShapeGroup"></path>
            <ellipse id="Oval-80" fill="#DEB28B" sketch:type="MSShapeGroup" cx="120" cy="137" rx="21" ry="41"></ellipse>
        </g>
    </g>
</svg>