<?xml version="1.0" encoding="UTF-8" standalone="no"?>
<svg width="240px" height="240px" viewBox="0 0 240 240" version="1.1" xmlns="http://www.w3.org/2000/svg" xmlns:xlink="http://www.w3.org/1999/xlink" xmlns:sketch="http://www.bohemiancoding.com/sketch/ns">
    <!-- Generator: Sketch 3.2.2 (9983) - http://www.bohemiancoding.com/sketch -->
    <title>Tomato</title>
    <desc>Created with Sketch.</desc>
    <defs></defs>
    <g id="Page-1" stroke="none" stroke-width="1" fill="none" fill-rule="evenodd" sketch:type="MSPage">
        <g id="Tomato" sketch:type="MSArtboardGroup">
            <path d="M120,218 C166.944204,218 205,183.592641 205,136.648438 C205,89.7042338 166.944204,59.2421875 120,59.2421875 C73.0557963,59.2421875 35,89.7042338 35,136.648438 C35,183.592641 73.0557963,218 120,218 Z" id="Oval-92" stroke="#D0011B" stroke-width="10" fill="#FD0E2B" sketch:type="MSShapeGroup"></path>
            <path d="M84.2558346,101.117473 C89.1373883,105.999027 97.0519505,105.999027 101.933504,101.117473 C106.815058,96.2359194 136.472111,58.6643044 131.590557,53.7827507 C126.709003,48.9011971 89.1373883,78.5582499 84.2558346,83.4398035 C79.374281,88.3213572 79.374281,96.2359194 84.2558346,101.117473 Z" id="Oval-96" fill="#417505" sketch:type="MSShapeGroup" transform="translate(106.362895, 79.010413) scale(-1, -1) translate(-106.362895, -79.010413) "></path>
            <path d="M115.163604,101.117473 C120.045157,105.999027 127.95972,105.999027 132.841273,101.117473 C137.722827,96.2359194 167.37988,58.6643044 162.498326,53.7827507 C157.616772,48.9011971 120.045157,78.5582499 115.163604,83.4398035 C110.28205,88.3213572 110.28205,96.2359194 115.163604,101.117473 Z" id="Oval-98" fill="#417505" sketch:type="MSShapeGroup" transform="translate(137.270664, 79.010413) scale(1, -1) translate(-137.270664, -79.010413) "></path>
            <path d="M125.507957,79.7713635 C128.68004,82.9434463 133.823002,82.9434463 136.995085,79.7713635 C140.167167,76.5992808 159.438619,52.1848669 156.266536,49.0127842 C153.094454,45.8407015 128.68004,65.1121531 125.507957,68.2842358 C122.335874,71.4563185 122.335874,76.5992808 125.507957,79.7713635 Z" id="Oval-99" fill="#417505" sketch:type="MSShapeGroup" transform="translate(139.873347, 65.405973) scale(1, -1) rotate(30.000000) translate(-139.873347, -65.405973) "></path>
            <path d="M88.7612623,79.7713635 C91.933345,82.9434463 97.0763072,82.9434463 100.24839,79.7713635 C103.420473,76.5992808 122.691924,52.1848669 119.519842,49.0127842 C116.347759,45.8407015 91.933345,65.1121531 88.7612623,68.2842358 C85.5891795,71.4563185 85.5891795,76.5992808 88.7612623,79.7713635 Z" id="Oval-100" fill="#417505" sketch:type="MSShapeGroup" transform="translate(103.126653, 65.405973) scale(-1, -1) rotate(30.000000) translate(-103.126653, -65.405973) "></path>
            <path d="M145.104403,108.076186 C149.985956,103.194632 145.889243,85.4079019 141.007689,80.5263482 C136.126136,75.6447946 102.651234,55.8599101 97.7696804,60.7414637 C92.8881267,65.6230174 111.503089,100.267841 116.384643,105.149395 C121.266196,110.030949 140.222849,112.95774 145.104403,108.076186 Z" id="Oval-97" fill="#417505" sketch:type="MSShapeGroup" transform="translate(122.131120, 85.279321) scale(1, -1) rotate(45.000000) translate(-122.131120, -85.279321) "></path>
            <path d="M135.632849,81.3704804 C142.536408,81.3704804 148.132849,75.7740398 148.132849,68.8704804 C148.132849,61.966921 142.536408,14.4290741 135.632849,14.4290741 C128.729289,14.4290741 123.132849,61.966921 123.132849,68.8704804 C123.132849,75.7740398 128.729289,81.3704804 135.632849,81.3704804 Z" id="Oval-93" fill="#417505" sketch:type="MSShapeGroup" transform="translate(135.632849, 47.899777) rotate(30.000000) translate(-135.632849, -47.899777) "></path>
        </g>
    </g>
</svg>
