<?xml version="1.0" encoding="UTF-8" standalone="no"?>
<svg width="300px" height="300px" viewBox="0 0 300 300" version="1.1" xmlns="http://www.w3.org/2000/svg" xmlns:xlink="http://www.w3.org/1999/xlink" xmlns:sketch="http://www.bohemiancoding.com/sketch/ns">
    <!-- Generator: Sketch 3.2.2 (9983) - http://www.bohemiancoding.com/sketch -->
    <title>Artboard 26</title>
    <desc>Created with Sketch.</desc>
    <defs></defs>
    <g id="Page-1" stroke="none" stroke-width="1" fill="none" fill-rule="evenodd" sketch:type="MSPage">
        <g id="Artboard-26" sketch:type="MSArtboardGroup">
            <g id="Icon-2" sketch:type="MSLayerGroup" transform="translate(76.000000, 26.000000)">
                <g id="Body-2" transform="translate(14.536585, 75.782609)" sketch:type="MSShapeGroup">
                    <path d="M67.2317073,143.469058 C104.362754,143.469058 134.463415,93.1316814 134.463415,60.1903199 C134.463415,27.2489585 104.362754,0.544708778 67.2317073,0.544708778 C30.1006607,0.544708778 0,27.2489585 0,60.1903199 C0,93.1316814 30.1006607,143.469058 67.2317073,143.469058 Z" id="Body" fill="#F27F8D"></path>
                    <ellipse id="BodyTop" fill="#FFFFFF" cx="67.7760936" cy="25.3289582" rx="49.2669596" ry="25.3289582"></ellipse>
                    <path d="M61.2251786,108.853453 C61.2251786,108.853453 45.2938736,123.360697 45.1849215,131.54185 C45.0759693,139.723004 55.3573218,134.226056 60.7520303,144.38187 C66.1467389,154.537685 67.2995514,173.173772 67.2995514,173.173772 C67.2995514,173.173772 79.3966907,154.929555 78.1872773,143.957381 C76.9778639,132.985206 62.0434178,138.461245 62.3596711,128.357645 C62.6759244,118.254044 79.368553,106.218212 79.368553,106.218212 L61.2251786,108.853453 Z" id="Path-1" fill="#F27F8D"></path>
                </g>
                <g id="Head-2" sketch:type="MSShapeGroup">
                    <path d="M87.2722283,44.9082126 C101.314153,44.9082126 141.476069,32.5812635 141.476069,17.3752013 C141.476069,2.16913905 118.498108,0 104.456184,0 C90.4142589,0 61.8470747,2.16913905 61.8470747,17.3752013 C61.8470747,32.5812635 73.2303037,44.9082126 87.2722283,44.9082126 Z" id="Oval-6" fill="#DCF3C2"></path>
                    <ellipse id="Oval-7" fill="#DCF3C2" cx="91.1518805" cy="44.9082126" rx="10.5487339" ry="26.7310789"></ellipse>
                    <path d="M55.2751968,74.3646085 C64.0609013,85.2525511 60.9643309,81.2135831 67.911701,92.032181 C74.8590711,102.850779 73.0740722,117.77964 81.3659857,114.99376 C89.6578991,112.20788 83.8489108,72.9227572 83.8489108,54.7987118 C83.8489108,31.0300125 73.5555654,11.7616747 60.8580804,11.7616747 C48.1605954,11.7616747 37.86725,31.0300125 37.86725,54.7987118 C37.86725,64.3085442 46.4894923,63.4766659 55.2751968,74.3646085 Z" id="BottomLeaf" stroke="#FFFFFF" stroke-width="3.2484375" fill="#B8E986"></path>
                    <path d="M42.1547863,60.3400148 C63.5164376,60.3400148 77.6278626,49.8824081 77.6278626,34.3537861 C77.6278626,18.8251641 60.3108227,6.23672872 38.9491715,6.23672872 C17.5875202,6.23672872 0.270480357,18.8251641 0.270480357,34.3537861 C0.270480357,49.8824081 20.7931351,60.3400148 42.1547863,60.3400148 Z" id="TopLeaf" fill="#B8E986"></path>
                </g>
            </g>
        </g>
    </g>
</svg>
